# xmcd
# 
# Track frame offsets:
#     150
#     23485
#     65560
#     111200
#     155357
#     178785
#     221427
#     231677
#     270827
# 
# Disc length: 4076
# 
# Revision: 1
# Processed by: cddbd v1.5.2PL0 Copyright (c) Steve Scherf et al.
# Submitted via: BonkEnc v1.0.8
# 
DISCID=760fea09
DTITLE=Robert Glasper, Bob Hurst, Damion Reed - Mood
DYEAR=2002
DGENRE=Contemporary Jazz
TTITLE0=Maiden Voyage (feat. Bilal-Vocals)
TTITLE1=Lil Tipsy
TTITLE2=Alone Together
TTITLE3=Mood (feat. Mike Moreno-Guitar and John Ellis-Tenor Sax)
TTITLE4=Don't Close Your Eyes (feat. Bilal-Vocals)
TTITLE5=Blue Skies
TTITLE6=Interlude
TTITLE7=In Passing
TTITLE8=L.N.K. Blues (feat. John Ellis-Tenor Sax #1 and Marcus Strickland-Tenor Sax #2)
EXTD=YEAR: 2003
EXTT0=
EXTT1=
EXTT2=
EXTT3=
EXTT4=
EXTT5=
EXTT6=
EXTT7=
EXTT8=
PLAYORDER=
